<?xml version="1.0" encoding="utf-8"?>
<!-- Generator: Adobe Illustrator 18.0.0, SVG Export Plug-In . SVG Version: 6.00 Build 0)  -->
<!DOCTYPE svg PUBLIC "-//W3C//DTD SVG 1.1//EN" "http://www.w3.org/Graphics/SVG/1.1/DTD/svg11.dtd">
<svg version="1.1" id="Layer_1" xmlns="http://www.w3.org/2000/svg" xmlns:xlink="http://www.w3.org/1999/xlink" x="0px" y="0px"
	 viewBox="0 0 1368 368" enable-background="new 0 0 1368 368" xml:space="preserve">
<g>
	<rect x="63.3" y="171.7" fill="none" width="862.1" height="264.1"/>
	
		<text transform="matrix(1 0 0 1 63.2843 185.5388)" fill="#FFFFFF" stroke="#000000" stroke-miterlimit="10" font-family="'MyriadPro-Regular'" font-size="19.4448">u</text>
	<path fill="#FEC20F" d="M87.1,166.9c1.3-3.9,1.6-4.8,2.8-9.1"/>
	<path fill="#FEC20F" d="M178.9,193.6c3.1-2.9,6.2-6.1,9.3-9.6c3.1-3.5,6-7.2,8.7-11.2c2.7-4,4.8-8.3,6.4-12.9c0.4-2.4,1.1-5,2-7.6
		c0.9-2.7,1.9-5.1,3-7.3c1.1-2.2,2.2-4,3.2-5.5c1-1.5,2-2.2,2.8-2.2c1.3,0.7,3.1,2.1,5.7,4.2s5,4.2,7.6,6.5c2.5,2.3,4.7,4.4,6.7,6.4
		c1.9,1.9,2.9,3.1,2.9,3.5c-1.3,4.8-1.9,9.2-1.8,13.1c0.1,3.9,0.4,7.7,0.9,11.5c0.6,3.8,1.2,7.8,1.9,12c0.7,4.3,1,9.2,1,14.7
		c0,3.4-0.6,7.2-1.7,11.6c-1.1,4.4-3,8.3-5.7,11.7c5.4-3.1,10.7-6.7,15.9-10.6c5.2-3.9,9.9-7.6,14-11.1c4.8-4.1,9.4-8.2,13.9-12.3
		l7.1,7.7c-3.5,3.3-7.2,6.7-11.3,10.4c-4,3.7-8.2,7.3-12.6,10.9c-4.4,3.6-8.8,7-13.3,10.2c-4.5,3.3-9,6.1-13.4,8.7
		c-4.4,2.5-8.7,4.5-12.8,6c-4.1,1.5-7.9,2.2-11.5,2.2c-3,0-6.4-0.7-10.1-2.2c-3.7-1.5-7.1-3.3-10.4-5.4c-3.3-2.1-6.1-4.3-8.5-6.6
		c-2.4-2.3-3.8-4.3-4.3-5.8c0-0.2,0.2-0.7,0.6-1.3c0.4-0.7,0.9-1.4,1.5-2.1c0.6-0.7,1.2-1.4,1.7-2c0.6-0.6,1-0.9,1.3-0.9
		c0.6,0,1.9,0.5,3.8,1.4c1.9,0.9,5,1.4,9.4,1.4c2.4,0,4.5-0.6,6.2-1.9c1.7-1.3,3.2-2.9,4.3-5c1.2-2.1,2-4.5,2.5-7.2
		c0.5-2.7,0.8-5.6,0.8-8.7c0-4.4-0.2-8.7-0.6-12.8c-0.4-4.1-0.9-8.2-1.4-12c-1.8,2.1-3.8,4.3-6.1,6.6c-2.3,2.3-4.6,4.6-7,6.9
		c-2.4,2.3-4.7,4.5-7.1,6.6c-2.4,2.2-4.5,4.1-6.4,5.7l-7.6-7.7C173,199.2,175.8,196.6,178.9,193.6z"/>
	<path fill="#FEC20F" d="M290.6,253.6c-1.8,0-4.1-0.8-7-2.4c-2.9-1.6-5.7-3.6-8.4-6c-2.7-2.4-5.1-4.8-7.1-7.3c-2-2.5-3-4.7-3-6.5
		c0-3.1,0.9-8.1,2.6-15c1.7-6.8,4-14.6,6.9-23.4c2.8-8.8,6.1-18.1,9.7-28.1c3.6-10,7.3-19.7,10.9-29.3H273h-0.2
		c-0.1,0-0.2-0.1-0.2-0.3c0-0.6,0.2-1.5,0.7-2.8c0.5-1.2,1.1-2.5,1.7-3.8c0.7-1.3,1.5-2.5,2.4-3.6c0.9-1.1,1.8-1.8,2.6-2.1l20.5-0.9
		c2.9-7.1,5.7-13.7,8.4-19.8c2.7-6,5.1-11.2,7.2-15.5c0.5-1.2,1.1-2.4,1.7-3.7c0.6-1.3,1.4-2.6,2.5-3.9c1.1-1.3,2.6-2.7,4.4-4.1
		c1.8-1.4,4.3-2.9,7.5-4.3c2.3-1.2,5.1-2.4,8.4-3.8c3.3-1.4,6.6-2.6,9.8-3.8c3.2-1.2,6.1-2.1,8.7-2.9c2.6-0.8,4.5-1.2,5.7-1.2
		c1,0,1.6,0.2,1.6,0.6v0.3c0,0.1-0.1,0.4-0.3,0.8c-0.6,1.1-1.8,3.3-3.5,6.9c-1.7,3.5-3.8,7.9-6.2,13.2c-2.5,5.3-5.2,11.3-8.2,18.1
		c-3,6.8-6.1,13.9-9.2,21.5l37.8-1.4c1,0,1.4,0.6,0.9,1.9c-0.4,1.3-1.2,2.7-2.4,4.4c-1.2,1.7-2.5,3.4-4,5.2
		c-1.5,1.8-2.8,3.1-3.9,4.1c-0.2,0.2-0.6,0.4-1.3,0.6c-0.6,0.2-1.4,0.3-2.4,0.3h-31.2c-3.8,9.1-7.4,18.4-10.9,27.7
		c-3.5,9.3-6.6,18.2-9.3,26.6c-2.7,8.4-4.9,16.1-6.5,23.1c-1.6,7-2.4,12.8-2.4,17.3c0,0.6,0.3,0.9,0.9,0.9c1.2,0,2.9-0.7,5.2-2
		c2.3-1.3,4.9-3,7.8-5.1c2.9-2.1,6-4.4,9.2-6.9c3.3-2.5,6.4-5,9.3-7.5c2.9-2.5,5.6-4.7,8-6.8c2.4-2,4.2-3.6,5.4-4.6
		c0.9,0.9,2.1,2.2,3.4,3.6c1.3,1.5,2.5,2.8,3.7,4.1c-2.3,2.3-5.2,5.1-8.7,8.4c-3.5,3.3-7.2,6.7-11.3,10.2c-4,3.5-8.2,6.9-12.6,10.4
		c-4.4,3.5-8.6,6.6-12.8,9.3c-4.1,2.7-8,4.9-11.6,6.6C296,252.8,293,253.6,290.6,253.6z"/>
	<path fill="#FEC20F" d="M421.3,176.9c-2.6-4.6-12.9-1.3-16.2,1.4c-3.8,3.3-7.3,6.5-10.6,9.6c-7.7,7.6-13,14.1-15.9,19.6
		c-2.9,5.5-4.4,9.5-4.4,11.9c0,1.8,0.7,2.7,2.2,2.7c1.5,0,3.3-0.6,5.6-1.8c2.3-1.2,4.8-2.8,7.6-4.9c2.8-2,6-4.5,9.4-7.2
		c3.4-2.8,7-5.7,10.6-8.7c3.3-2.6,6.4-5.5,9.4-8.5C421.7,188.4,421.6,180.3,421.3,176.9 M434,158.6c1.2,0.8,7.7,13.4,9.1,15.4
		c1.5,1.9,2.8,4.1,4.1,6.4c1.3,2.3,2.3,4.5,3.2,6.7c0.9,2.2-2.6,6.1-2.6,7.3c-2.4,4.9-4.3,9.4-5.6,13.5c-1.3,4-2.3,7.6-3,10.6
		c-0.7,3-1.1,5.6-1.3,7.8c-0.2,2.2-0.2,3.8-0.2,5c0,0.6,0.3,0.9,0.9,0.9c0.9,0,2.5-0.7,4.7-2c2.2-1.4,4.7-3.1,7.6-5.2
		c2.8-2.1,5.9-4.5,9.1-7.1c3.2-2.6,6.3-5.2,9.2-7.7c2.9-2.5,5.6-4.8,8-6.9c2.4-2.1,4.2-3.7,5.4-4.9c0.9,0.9,2.1,2.2,3.5,3.8
		s2.7,3,3.9,4.3c-2.5,2.3-5.5,5.1-9.1,8.4c-3.5,3.3-7.3,6.7-11.3,10.3c-4,3.6-8.2,7.1-12.5,10.6c-4.3,3.5-8.5,6.6-12.6,9.4
		s-8,5-11.7,6.7c-3.7,1.7-6.9,2.6-9.6,2.6c-1.9,0-4-0.4-6.2-1.1c-2.3-0.7-4.3-1.8-6.2-3.1c-1.9-1.3-3.5-2.9-4.7-4.6
		c-1.3-1.8-1.9-3.8-1.9-6c0-0.8,0-1.9-0.1-3.1c-0.1-1.2,0-2.8,0.2-4.7c0.2-1.9,0.6-4.3,1.3-7.1c0.6-2.8,1.6-6.2,2.8-10.3
		c-3.5,3.7-7.5,7.5-12.2,11.5c-4.7,4-9.6,7.8-14.7,11.3c-5.1,3.6-10.3,6.8-15.5,9.7c-5.2,2.9-10,5.1-14.4,6.5
		c-0.5,0.2-0.9,0.3-1.3,0.3c-0.3,0-0.6,0-0.9,0c-1,0-2.4-0.5-4.2-1.6c-1.7-1.1-3.4-2.4-5.1-4.2c-1.7-1.7-3.1-3.7-4.3-5.9
		c-1.2-2.2-1.8-4.4-1.8-6.6c0-0.6,0.3-2.7,0.9-6.3c0.6-3.6,2.1-8.1,4.5-13.6c2.4-5.5,5.9-11.7,10.5-18.6
		c4.6-6.9,10.9-13.9,18.9-21.2c4.1-3.7,8.5-7.1,13.2-10.4c4-2.7,8.6-5.5,13.7-8.3c5.1-2.8,10.6-5.1,16.2-6.8c0.2,0,0.4-0.1,0.6-0.2
		c0.2-0.1,0.4-0.1,0.7,0.2c6.4-1.1,4.2-0.7,8.8,0.2c-1.9-0.4,3.2,1.3,4.9,2.3c1.7,1,3.3,2,4.6,3c1.3,1,1.6,1.3,2,2
		C433.5,157.8,434.1,158.5,434,158.6"/>
	<path fill="#FEC20F" d="M585.6,202.1c-1.3-1.5-2.4-2.7-3.4-3.6c-1.3,1.1-3.1,2.6-5.5,4.7c-2.4,2.1-5.1,4.4-8.1,7
		c-3,2.6-6.1,5.2-9.4,7.8c-3.3,2.6-6.4,5-9.4,7.2c-3,2.2-5.6,4-8,5.4c-2.3,1.4-4,2-5.2,2c-0.6,0-0.9-0.3-0.9-0.9
		c0-1.8,0.7-4.7,2-8.8c1.3-4.1,2.9-8.7,4.8-13.7c1.9-5,3.9-10.2,5.9-15.4c2-5.2,3.8-9.9,5.1-14c0.3-0.9,0.3-2-0.1-3.3
		c-0.4-1.3-1.2-2.3-2.6-3.1c-3.8-2.8-7.8-5.6-12-8.3c-3.6-2.4-7.5-5-11.8-7.6c-0.2-0.1-0.3-0.2-0.5-0.3c-4.4-2.2-8.7-4.4-13.1-6.6
		c-1-0.5-2-1-3-1.6c-6.5,8.7-13.1,17.3-19.7,26c0.8,0.5,1.5,1.1,2.4,1.7c2.1,1.4,4.5,2.9,7.1,4.5c-3.7,3.8-7.4,7.5-11.3,11.3
		c-3.8,3.7-7.1,6.9-9.8,9.5l7.6,7.7c1.7-1.6,3.6-3.3,5.7-5.2c2.1-1.9,4.2-3.8,6.3-5.8c2.1-2,4.2-4,6.2-6c2-2,3.9-3.9,5.6-5.7
		c1.2,0.6,2.3,1.3,3.5,1.9c1.2,0.6,2.4,1.2,3.6,1.7c-0.5,1.2-1.3,2.9-2.4,5.2c-1.1,2.3-2.3,5.3-3.6,9.1c-1.4,3.7-2.8,8.2-4.4,13.5
		c-1.6,5.3-3.1,11.4-4.7,18.4c0,1.9,0.8,3.8,2.4,5.8c1.6,2,3.5,3.8,5.7,5.4c2.2,1.6,4.5,3,6.9,4.1c2.4,1.1,4.4,1.7,6,1.7
		c2.4,0,5.4-0.8,9-2.5c3.6-1.7,7.4-3.9,11.6-6.6c4.1-2.7,8.4-5.8,12.8-9.3c4.4-3.5,8.6-6.9,12.6-10.4c4-3.5,7.8-6.9,11.3-10.2
		c3.5-3.3,6.4-6.1,8.7-8.4C588.2,205,587,203.6,585.6,202.1z"/>
	<path fill="#FEC20F" d="M676.1,227.5c0,2.6,0.8,3.9,2.5,3.9c2,0,4.4-0.6,7.2-1.9c2.8-1.3,5.7-2.9,8.7-5c3-2,6.1-4.3,9.3-6.9
		c3.1-2.5,6.1-5,8.9-7.4c2.8-2.4,5.3-4.7,7.5-6.8c2.2-2.1,3.9-3.8,5.2-5c1,0.9,2.3,2.2,3.8,3.6c1.5,1.5,2.8,2.8,3.9,4.1
		c-2.7,2.7-5.8,5.8-9.3,9.1c-3.5,3.4-7.2,6.8-11.1,10.3c-3.9,3.5-8,6.9-12.3,10.2c-4.3,3.3-8.5,6.2-12.7,8.8
		c-4.2,2.6-8.3,4.6-12.3,6.2c-4,1.6-7.8,2.4-11.3,2.4c-1.9,0-4.2-0.9-6.9-2.6c-2.7-1.7-5.4-3.9-7.9-6.4c-2.5-2.5-4.6-5.2-6.4-8
		c-1.7-2.8-2.6-5.3-2.6-7.5c0-4.8,0.3-9.9,0.9-15.1c-4.7,4.2-9.3,8.2-13.7,12c-4.4,3.8-8.8,7.3-13.3,10.6c-4.5,3.3-9,6.4-13.7,9.1
		c-4.7,2.8-9.6,5.2-14.9,7.2c-1.6,0.6-2.9,0.9-4.1,0.9c-1,0-2.4-0.5-4.1-1.6c-1.7-1.1-3.3-2.4-4.9-4c-1.6-1.6-2.9-3.5-4.1-5.5
		c-1.2-2-1.7-4-1.7-5.9c0-4.3,0.8-9.1,2.4-14.4c1.6-5.3,4-10.8,7.1-16.4c3.1-5.6,6.9-11.2,11.3-16.9c4.5-5.6,9.5-10.9,15.2-15.9
		c5.7-5,11.9-9.5,18.7-13.5c6.8-4,14.1-7.3,21.9-9.7c2.9-0.7,6.3-2.4,8.9-2.8c3.7-0.6,3.7-0.6,6.5-0.8c3.8-10.8,4.8-12.7,9.7-23.5
		c4.9-10.9,10.1-21.3,15.6-31.3c5.5-10,11.3-19.4,17.2-28.2c6-8.8,12-16.5,18-23.3c6-6.8,11.9-12.3,17.7-16.5
		c5.8-4.2,11.4-6.8,16.6-7.7c2.3,0,4.7,0.8,7.3,2.3c2.6,1.5,5,3.4,7.3,5.5c2.3,2.2,4.3,4.4,5.9,6.7c1.6,2.3,2.6,4.3,3.1,5.8
		c0,4.8-1.2,10.4-3.6,16.9c-2.4,6.4-5.7,13.3-10,20.7c-4.3,7.4-9.3,15.1-15.1,23.2c-5.8,8.1-12.1,16.3-18.8,24.6
		c-6.7,8.3-13.8,16.7-21.2,25c-7.4,8.3-14.8,16.3-22.3,24.1c-3.1,10.7-5.6,20.9-7.5,30.6C677,210.8,676.1,219.6,676.1,227.5z
		 M605.7,222.1c3.5,0,8.6-2.4,15.4-7.3c6.8-4.9,14.5-11.4,23.1-19.6c0.9-4.8,2.1-9.7,3.5-14.7c1.4-5,2.9-10.1,4.6-15.2
		c-6.1,4.1-12,8.8-17.9,14c-5.8,5.3-11,10.4-15.5,15.6c-4.5,5.1-8.2,9.9-10.9,14.4c-2.8,4.5-4.2,7.9-4.2,10.2
		C603.8,221.3,604.5,222.1,605.7,222.1z M755.2,34.7c-1.8,0-4,1.3-6.5,3.9c-2.6,2.6-5.5,6.3-8.7,10.9c-3.2,4.7-6.6,10.2-10.2,16.6
		c-3.6,6.4-7.2,13.4-10.9,20.9c-3.7,7.6-7.4,15.6-11,24.1c-3.7,8.5-7.1,17.1-10.4,25.8c7.9-9.7,15.4-19.3,22.4-29.1
		c7.1-9.7,13.3-18.9,18.7-27.6c5.4-8.7,9.6-16.7,12.8-23.9c3.1-7.2,4.7-13.2,4.7-18c0-0.6,0-1.4-0.1-2.4
		C756,35.2,755.7,34.7,755.2,34.7z"/>
	<path fill="#FEC20F" d="M834.7,206.2c-9.7,9.4-18.8,17.4-27.3,23.8c-8.6,6.4-16.7,11.6-24.5,15.4c-7.8,3.9-15.2,6.7-22.3,8.3
		c-7.1,1.7-14,2.5-20.7,2.5c-2.8,0-6-1.1-9.4-3.1c-3.5-2.1-6.7-4.6-9.7-7.6c-3-3-5.5-6.1-7.5-9.4c-2-3.3-3-6-3-8.3
		c0-8.6,1.2-16.5,3.5-23.7c2.4-7.2,5.5-13.7,9.4-19.4c3.9-5.8,8.3-10.9,13.3-15.3c5-4.4,10.2-8.1,15.6-11c5.4-2.9,10.8-5.1,16.1-6.6
		c5.4-1.5,10.3-2.2,14.8-2.2c3.3,0,6.5,0.9,9.7,2.8c3.2,1.9,6.1,4.2,8.7,6.9c2.6,2.7,4.7,5.6,6.4,8.6c1.6,3,2.4,5.6,2.4,7.8
		c0,3.6-1.5,7.2-4.5,10.9c-3,3.7-7.2,7.5-12.7,11.4c-5.5,3.9-12,7.9-19.7,11.9c-7.7,4-16.1,8.1-25.4,12.2c-0.3,2.5-0.5,5-0.5,7.4
		c0,3.3,0.7,5.5,2.1,6.6c1.4,1.2,4.1,1.7,8,1.7c6.9,0,13.5-1.2,19.6-3.5c6.1-2.3,12-5.3,17.7-9c5.7-3.7,11.1-7.9,16.4-12.6
		c5.2-4.7,10.4-9.5,15.6-14.3L834.7,206.2z M779.3,166.9c-2.1,0-4.4,1.1-6.9,3.4c-2.5,2.3-5,5.2-7.6,8.9c-2.5,3.7-4.9,7.9-7.2,12.7
		c-2.3,4.8-4.3,9.7-6,14.9c3.9-2.5,7.7-5.2,11.4-8c3.7-2.8,7.1-5.8,10-8.9c2.9-3.1,5.3-6.3,7.1-9.5c1.8-3.3,2.7-6.5,2.7-9.8
		c0-0.9-0.3-1.8-0.9-2.5C781.3,167.2,780.4,166.9,779.3,166.9z"/>
	<path fill="#FEC20F" d="M832.3,193.6c3.1-2.9,6.2-6.1,9.3-9.6c3.1-3.5,6-7.2,8.7-11.2c2.7-4,4.8-8.3,6.4-12.9c0.4-2.4,1.1-5,2-7.6
		c0.9-2.7,1.9-5.1,3-7.3c1.1-2.2,2.2-4,3.2-5.5c1-1.5,2-2.2,2.8-2.2c1.3,0.7,3.1,2.1,5.7,4.2c2.5,2,5,4.2,7.6,6.5
		c2.5,2.3,4.7,4.4,6.7,6.4c1.9,1.9,2.9,3.1,2.9,3.5c-1.3,4.8-1.9,9.2-1.8,13.1c0.1,3.9,0.4,7.7,0.9,11.5c0.6,3.8,1.2,7.8,1.9,12
		c0.7,4.3,1,9.2,1,14.7c0,3.4-0.6,7.2-1.7,11.6c-1.1,4.4-3,8.3-5.7,11.7c5.4-3.1,10.7-6.7,15.9-10.6c5.2-3.9,9.9-7.6,14-11.1
		c4.8-4.1,9.4-8.2,13.9-12.3l7.1,7.7c-3.5,3.3-7.2,6.7-11.3,10.4c-4,3.7-8.2,7.3-12.6,10.9c-4.4,3.6-8.8,7-13.3,10.2
		c-4.5,3.3-9,6.1-13.4,8.7c-4.4,2.5-8.7,4.5-12.8,6c-4.1,1.5-7.9,2.2-11.5,2.2c-3,0-6.4-0.7-10.1-2.2c-3.7-1.5-7.1-3.3-10.4-5.4
		c-3.3-2.1-6.1-4.3-8.5-6.6c-2.4-2.3-3.8-4.3-4.3-5.8c0-0.2,0.2-0.7,0.6-1.3c0.4-0.7,0.9-1.4,1.5-2.1c0.6-0.7,1.2-1.4,1.7-2
		c0.6-0.6,1-0.9,1.3-0.9c0.6,0,1.9,0.5,3.8,1.4c1.9,0.9,5,1.4,9.4,1.4c2.4,0,4.5-0.6,6.2-1.9c1.7-1.3,3.2-2.9,4.3-5
		c1.2-2.1,2-4.5,2.5-7.2c0.5-2.7,0.8-5.6,0.8-8.7c0-4.4-0.2-8.7-0.6-12.8c-0.4-4.1-0.9-8.2-1.4-12c-1.8,2.1-3.8,4.3-6.1,6.6
		c-2.3,2.3-4.6,4.6-7,6.9c-2.4,2.3-4.7,4.5-7.1,6.6c-2.4,2.2-4.5,4.1-6.4,5.7l-7.6-7.7C826.4,199.2,829.2,196.6,832.3,193.6z"/>
	<path fill="#FEC20F" d="M938.8,253.6c-1.6,0-3.6-0.6-6-1.7c-2.4-1.1-4.7-2.5-6.9-4.1c-2.2-1.6-4.1-3.4-5.7-5.4
		c-1.6-2-2.4-3.9-2.4-5.8c1.1-4.6,2.5-9.9,4.3-15.9c1.8-6,3.7-12.1,5.7-18.3c2-6.2,4.2-12.3,6.5-18.2c2.3-5.9,4.3-11.2,6.1-15.8
		c1.8-4.6,3.4-8.3,4.8-11.2c1.4-2.8,2.3-4.3,2.7-4.3c0.6,0,2.2,0.7,4.7,2c2.5,1.4,5.2,3,8,5c2.8,1.9,5.3,4,7.5,6.1
		c2.2,2.2,3.3,4,3.3,5.6c0,0.3-0.1,0.7-0.2,1.2c-0.1,0.5-0.3,1.1-0.5,1.8c-0.8,2.6-1.9,5.7-3.2,9.3c-1.3,3.6-2.7,7.3-4.2,11.1
		c-1.5,3.8-2.9,7.7-4.4,11.5c-1.5,3.8-2.8,7.4-3.9,10.8c-1.2,3.4-2.1,6.3-2.8,8.8c-0.7,2.5-1.1,4.4-1.1,5.5c0,0.6,0.3,0.9,0.9,0.9
		c1.2,0,2.9-0.7,5.2-2c2.3-1.4,5-3.1,8-5.4c3-2.2,6.1-4.6,9.4-7.2c3.3-2.6,6.4-5.2,9.4-7.8c3-2.6,5.7-4.9,8.1-7
		c2.4-2.1,4.3-3.7,5.5-4.7c0.9,0.9,2.1,2.2,3.4,3.6c1.3,1.5,2.5,2.8,3.7,4.1c-2.3,2.3-5.2,5.1-8.7,8.4c-3.5,3.3-7.2,6.7-11.3,10.2
		c-4,3.5-8.2,6.9-12.6,10.4c-4.4,3.5-8.6,6.6-12.7,9.3s-7.9,4.9-11.5,6.6C944.4,252.8,941.3,253.6,938.8,253.6z M1001.2,105
		c-0.1,0.4-0.5,1.4-1.2,3.1c-0.7,1.6-1.5,3.5-2.4,5.7c-0.9,2.2-2,4.4-3.2,6.8c-1.2,2.4-2.4,4.5-3.5,6.5c-1.2,2-2.3,3.6-3.3,5
		c-1.1,1.3-1.9,2-2.5,2c-1.9-0.1-4.2-0.7-6.9-1.7c-2.7-1-5.3-2.2-7.7-3.5c-2.5-1.3-4.6-2.6-6.3-3.9c-1.7-1.3-2.6-2.1-2.6-2.7
		c0-2.2,0.6-5.1,1.9-8.6c1.3-3.5,2.7-6.9,4.4-10.2c1.7-3.3,3.4-6.2,5.1-8.6c1.7-2.4,3.1-3.6,4-3.6c1.9,0,4.2,0.6,6.9,1.8
		c2.7,1.2,5.4,2.6,8,4.2c2.6,1.6,4.8,3.1,6.6,4.6C1000.2,103.3,1001.2,104.3,1001.2,105z"/>
	<path fill="#FEC20F" d="M1085.1,156.7c0.8,0.2,6.6,12.5,6.9,15.2c0.2,2.3,1.6,5.8,1.5,9.4c-0.1,2.8-1.6,10.8-3.4,14 M1073.5,165.7
		c-6.9-1-13.3,6.4-17.5,9.7c-4.2,3.3-8.4,6.9-12.6,10.6c-4.2,3.8-8,7.5-11.4,11.3c-3.4,3.7-6.2,7.3-8.3,10.7
		c-2.1,3.4-3.1,6.5-3.1,9.2c0,0.9,0.2,1.8,0.7,2.4c0.5,0.7,1.2,1,2.1,1c2.6,0,5.6-0.9,8.9-2.8c3.3-1.8,6.7-4.2,10.2-7.2
		c3.5-2.9,6.9-6.2,10.4-9.8c3.5-3.6,6.7-7.2,9.8-10.7c3.1-3.5,5.9-6.8,8.3-9.8C1073.3,177.4,1076.6,169.6,1073.5,165.7
		 M1090.1,195.4c-1.2,3.7-2.6,8.8-4.4,15.4c-1.8,6.6-4,14.2-6.8,22.8c6.7-5.4,13.5-11,20.2-16.9c6.8-5.9,13.5-12.2,20.2-18.9
		l7.1,8.3c-9,9.2-18.1,17.7-27.2,25.4c-9.1,7.7-18.1,14.9-27,21.7c-1.7,4.8-3.5,9.7-5.4,14.7c-1.9,5-4,10-6.1,15
		c-3,6.9-6.6,13.6-10.6,19.9c-4,6.4-8.3,12.2-12.8,17.6c-4.5,5.4-9.1,10.3-13.9,14.6c-4.7,4.4-9.3,8.1-13.6,11.1
		c-4.4,3-8.4,5.4-12.1,7.1c-3.7,1.7-6.9,2.5-9.5,2.5c-1.8,0-3.9-0.8-6.3-2.4c-2.4-1.6-4.7-3.5-6.9-5.9c-2.1-2.4-4-4.9-5.5-7.7
		c-1.5-2.8-2.3-5.4-2.3-8c0-5.5,1.9-10.8,5.6-16.1c3.7-5.3,8.9-10.7,15.4-16.2c6.6-5.6,14.3-11.4,23.1-17.6
		c8.8-6.1,18.4-12.8,28.7-19.9c2.3-6,4.9-13.1,7.8-21.3c2.9-8.2,6.3-18.4,10.3-30.5c-3.8,5.3-8.2,10.4-13.2,15.5
		c-5,5.1-10.2,9.6-15.6,13.6c-5.4,4-10.7,7.2-16,9.7c-5.3,2.5-10.2,3.7-14.6,3.7c-1.2,0-2.6-0.6-4.5-1.7c-1.8-1.1-3.7-2.5-5.5-4.3
		c-1.8-1.8-3.4-3.9-4.7-6.3c-1.3-2.4-2-5-2-7.7c0-3.5,0.8-7.6,2.5-12.5c1.7-4.9,4.1-10.1,7.3-15.5c3.2-5.5,7.1-11,11.7-16.7
		c4.6-5.7,9.7-11,15.4-16c5.7-5,12-9.4,18.7-13.4c6.8-3.9,14-7,21.7-9.1c1.2,0,6.9-1,9.1-1.1c3.4-0.2,9.5,2.9,11.6,4
		c2,1.1,3.8,2.3,4.9,3.9 M985.9,334.9c2.1,0,5.1-1.6,9.1-4.8c3.9-3.2,8.1-7.3,12.5-12.3c4.4-5,8.7-10.5,13-16.5
		c4.3-6,7.8-11.9,10.6-17.6c-6.8,4.9-13.1,9.6-18.7,13.9c-5.7,4.4-10.5,8.6-14.6,12.7c-4,4.1-7.2,8.1-9.4,11.9
		c-2.3,3.8-3.4,7.6-3.4,11.4C984.9,334.5,985.2,334.9,985.9,334.9z"/>
	<path fill="#FEC20F" d="M1163,168.9c-1.3,3.4-2.5,6.8-3.8,10.2c-1.3,3.5-2.5,7-3.8,10.7c6.6-7.6,12.3-13.7,17.1-18.5
		c4.8-4.8,8.8-8.5,12.1-11.3c3.3-2.7,6-4.6,8-5.6c2-1,3.6-1.5,4.8-1.5c1.4,0,3.4,0.7,6.1,2c2.7,1.4,5.5,3,8.3,5c2.8,2,5.2,4,7.2,6.1
		c2,2.1,3.1,3.9,3.1,5.5c0,0.3-0.1,0.7-0.2,1.2c-0.1,0.5-0.3,1.1-0.5,1.8c-0.8,2.6-1.9,5.7-3.2,9.3c-1.3,3.6-2.7,7.3-4.2,11.1
		c-1.5,3.8-2.9,7.7-4.4,11.5c-1.5,3.8-2.8,7.4-3.9,10.8c-1.2,3.4-2.1,6.3-2.8,8.8c-0.7,2.5-1.1,4.4-1.1,5.5c0,0.6,0.3,0.9,0.9,0.9
		c1.2,0,2.9-0.7,5.2-2c2.3-1.4,5-3.1,8-5.4c3-2.2,6.1-4.6,9.4-7.2c3.3-2.6,6.4-5.2,9.4-7.8c3-2.6,5.7-4.9,8.1-7
		c2.4-2.1,4.3-3.7,5.5-4.7c1,0.9,2.2,2.2,3.5,3.6c1.3,1.5,2.5,2.8,3.6,4.1c-2.3,2.3-5.2,5.1-8.7,8.4c-3.5,3.3-7.2,6.7-11.3,10.2
		c-4,3.5-8.2,6.9-12.6,10.4c-4.4,3.5-8.6,6.6-12.7,9.3c-4.1,2.7-7.9,4.9-11.5,6.6c-3.6,1.7-6.6,2.5-9,2.5c-1.6,0-3.6-0.6-6-1.7
		c-2.4-1.1-4.8-2.5-7-4.1c-2.3-1.6-4.2-3.4-5.7-5.4c-1.6-2-2.4-3.9-2.4-5.8c0.9-4.3,2.2-9.2,3.9-14.6c1.6-5.5,3.4-11,5.3-16.8
		c1.9-5.7,3.9-11.4,5.9-17c2-5.6,4-10.8,5.9-15.5l-0.3,0.3c-2,2.4-4.9,5.6-8.6,9.5c-3.7,3.9-8,9-12.7,15.1
		c-4.7,6.1-9.7,13.5-15,22.2c-5.3,8.7-10.4,18.9-15.4,30.8c-0.6,1.5-1.2,2.6-1.7,3.5c-0.5,0.8-1.5,1.3-3,1.3c-1.8,0-3.8-0.5-6.1-1.5
		c-2.3-1-4.6-2.3-6.9-3.9c-2.4-1.6-4.7-3.4-7.1-5.4s-4.5-4-6.4-6c0-0.6,0.3-2.4,0.9-5.4c0.6-2.9,1.4-6.6,2.4-11.1
		c1.1-4.5,2.4-9.6,3.9-15.3c1.6-5.7,3.4-11.7,5.4-18c2-6.3,4.2-12.7,6.5-19.3c2.4-6.6,4.9-12.9,7.6-19c4.4,2.1,9.3,4.7,14.7,7.7
		C1153.4,161.3,1158.4,164.8,1163,168.9z"/>
	<path fill="#FEC20F" d="M1253.4,193.6c3.1-2.9,6.2-6.1,9.3-9.6c3.1-3.5,6-7.2,8.7-11.2c2.7-4,4.8-8.3,6.4-12.9c0.4-2.4,1.1-5,2-7.6
		c0.9-2.7,1.9-5.1,3-7.3c1.1-2.2,2.2-4,3.2-5.5c1-1.5,2-2.2,2.8-2.2c1.3,0.7,3.1,2.1,5.7,4.2s5,4.2,7.6,6.5c2.5,2.3,4.7,4.4,6.7,6.4
		c1.9,1.9,2.9,3.1,2.9,3.5c-1.3,4.8-1.9,9.2-1.8,13.1c0.1,3.9,0.4,7.7,0.9,11.5c0.6,3.8,1.2,7.8,1.9,12c0.7,4.3,1,9.2,1,14.7
		c0,3.4-0.6,7.2-1.7,11.6c-1.1,4.4-3,8.3-5.7,11.7c5.4-3.1,10.7-6.7,15.9-10.6c5.2-3.9,9.9-7.6,14-11.1c4.8-4.1,9.4-8.2,13.9-12.3
		l7.1,7.7c-3.5,3.3-7.2,6.7-11.3,10.4c-4,3.7-8.2,7.3-12.6,10.9c-4.4,3.6-8.8,7-13.3,10.2c-4.5,3.3-9,6.1-13.4,8.7
		c-4.4,2.5-8.7,4.5-12.8,6c-4.1,1.5-7.9,2.2-11.5,2.2c-3,0-6.4-0.7-10.1-2.2c-3.7-1.5-7.1-3.3-10.4-5.4c-3.3-2.1-6.1-4.3-8.5-6.6
		c-2.4-2.3-3.8-4.3-4.3-5.8c0-0.2,0.2-0.7,0.6-1.3c0.4-0.7,0.9-1.4,1.5-2.1c0.6-0.7,1.2-1.4,1.7-2c0.6-0.6,1-0.9,1.3-0.9
		c0.6,0,1.9,0.5,3.8,1.4c1.9,0.9,5,1.4,9.4,1.4c2.4,0,4.5-0.6,6.2-1.9c1.7-1.3,3.2-2.9,4.3-5c1.2-2.1,2-4.5,2.5-7.2
		c0.5-2.7,0.8-5.6,0.8-8.7c0-4.4-0.2-8.7-0.6-12.8c-0.4-4.1-0.9-8.2-1.4-12c-1.8,2.1-3.8,4.3-6.1,6.6c-2.3,2.3-4.6,4.6-7,6.9
		c-2.4,2.3-4.7,4.5-7.1,6.6c-2.4,2.2-4.5,4.1-6.4,5.7l-7.6-7.7C1247.5,199.2,1250.3,196.6,1253.4,193.6z"/>
	<g>
		<path fill="#FBC215" d="M124.9,259.7c4.6,8.2,9,15.6,13.1,22.6c17.4-0.1,36.7-0.1,54.3-0.1c-11.6-10.9-23.9-23.8-37-39.1
			c-14.1-16.5-29.9-36-47.4-58.7c17.4-14.4,32.8-28,46.4-40.9c13.5-12.9,25.8-25.5,36.8-37.7c11-12.3,21.1-24.4,30.4-36.5
			c9.2-12.1,18.3-24.5,27.2-37.2c-0.1-0.1-0.2-0.1-0.3-0.2c-15.5-0.2-29.2-0.5-31-0.5c-1.4,0-10-0.2-21.2-0.3
			c-0.5,0.9-0.9,1.8-1.4,2.8c-5.1,9.5-10.7,19.2-17,29.1c-6.3,9.9-13,19.9-20.3,29.9c-7.3,10-14.7,19.9-22.4,29.5
			c-7.7,9.6-15.5,19-23.3,28.2c-7.9,9.1-15.6,17.7-23.2,25.9c6.4-21.6,12.5-43.8,18.6-66.7c5.9-22.4,17.6-67.4,23.7-93.5
			c-11.2,0.1-19.9,0.1-21.2,0.1c-1.6,0-13,0.1-26.7,0.1c-2.2,15.2-4.7,30.3-7.4,45.6c-3.2,18.2-6.7,36.2-10.4,53.8
			c-3.7,17.7-7.6,34.8-11.6,51.5c-4,16.7-8,32.5-12.1,47.5c-4,15-8,29-11.9,41.8c-3.8,12.6-7.4,23.7-10.8,33.7
			c11.1,0,22.2,0.1,32.4,0.1c5.5-15.5,10.8-30.8,15.8-45.7c6.6-19.6,12.9-39.4,18.9-59.4C100.1,214.2,113.2,239,124.9,259.7z"/>
	</g>
	<path fill="#F9A21B" d="M253.7,217.2c-1.9,1.5-3.9,3.1-6.1,4.7c-5.3,3.9-10.6,7.5-15.9,10.6c2.7-3.5,4.6-7.4,5.7-11.7
		c0.3-1.1,0.4-2.2,0.7-3.2c-10.7,0.2-21.5,0.5-32.4,0.7c-0.5,2.2-1.2,4.2-2.2,5.9c-1.2,2.1-2.6,3.8-4.3,5c-1.7,1.3-3.8,1.9-6.2,1.9
		c-4.4,0-7.6-0.5-9.4-1.4c-1.9-0.9-3.1-1.4-3.8-1.4c-0.3,0-0.8,0.3-1.3,0.9c-0.6,0.6-1.2,1.2-1.7,2c-0.6,0.7-1.1,1.4-1.5,2.1
		c-0.4,0.7-0.6,1.1-0.6,1.3c0.4,1.6,1.8,3.5,4.3,5.8c2.4,2.3,5.2,4.5,8.5,6.6c3.3,2.1,6.7,3.9,10.4,5.4c3.7,1.5,7,2.2,10.1,2.2
		c3.6,0,7.4-0.7,11.5-2.2c4.1-1.5,8.3-3.5,12.8-6c4.4-2.5,8.9-5.4,13.4-8.7c4.5-3.3,8.9-6.7,13.3-10.2c4.3-3.5,8.4-7,12.3-10.6
		C265.3,217,259.5,217.1,253.7,217.2z"/>
	<path fill="#F9A21B" d="M328.9,215.6c-0.8,0.6-1.5,1.2-2.2,1.8c-3.3,2.5-6.3,4.8-9.2,6.9c-2.9,2.1-5.5,3.8-7.8,5.1
		c-2.3,1.3-4,2-5.2,2c-0.6,0-0.9-0.3-0.9-0.9c0-3.8,0.6-8.7,1.8-14.4c-12.4,0.3-25,0.5-37.8,0.8c-1.6,6.6-2.5,11.4-2.5,14.5
		c0,1.8,1,3.9,3,6.5c2,2.5,4.4,5,7.1,7.3c2.7,2.4,5.5,4.4,8.4,6c2.9,1.6,5.2,2.4,7,2.4c2.4,0,5.4-0.8,9-2.5
		c3.6-1.7,7.4-3.9,11.6-6.6c4.1-2.7,8.4-5.8,12.8-9.3c4.4-3.5,8.6-6.9,12.6-10.4c3.8-3.3,7.3-6.5,10.7-9.6
		C341.1,215.3,335.1,215.5,328.9,215.6z"/>
	<path fill="#F9A21B" d="M466.2,212.5c-2,1.7-4.1,3.4-6.2,5.2c-3.2,2.6-6.2,5-9.1,7.1c-2.8,2.1-5.4,3.8-7.6,5.2
		c-2.2,1.4-3.8,2-4.7,2c-0.6,0-0.9-0.3-0.9-0.9c0-1.2,0.1-2.8,0.2-5c0.2-2.1,0.6-4.7,1.3-7.8c0.4-1.6,0.8-3.4,1.4-5.2
		c-15.7,0.4-32.2,0.7-49.2,1.1c-0.5,0.4-1.1,0.9-1.6,1.2c-2.8,2-5.4,3.7-7.6,4.9c-2.3,1.2-4.1,1.8-5.6,1.8c-1.5,0-2.2-0.9-2.2-2.7
		c0-1.2,0.4-2.9,1.1-4.9c-11.8,0.3-23.7,0.5-36,0.8c0,0,0,0.1,0,0.1c-2.4,5.5-3.9,10.1-4.5,13.6c-0.6,3.6-0.9,5.7-0.9,6.3
		c0,2.2,0.6,4.4,1.8,6.6c1.2,2.2,2.7,4.2,4.3,5.9c1.7,1.7,3.4,3.1,5.1,4.2c1.7,1,3.1,1.6,4.2,1.6h0.9c0.3,0,0.7-0.1,1.3-0.3
		c4.4-1.5,9.2-3.6,14.4-6.5c5.2-2.9,10.4-6.1,15.5-9.7c5.1-3.6,10.1-7.3,14.7-11.3c4.7-4,8.7-7.8,12.2-11.5
		c-1.3,4.1-2.2,7.5-2.8,10.3c-0.6,2.8-1.1,5.1-1.3,7.1c-0.2,1.9-0.3,3.5-0.2,4.7c0.1,1.2,0.1,2.2,0.1,3.1c0,2.2,0.6,4.2,1.9,6
		c1.3,1.8,2.8,3.3,4.7,4.6c1.9,1.3,4,2.3,6.2,3.1c2.3,0.7,4.3,1.1,6.2,1.1c2.7,0,5.9-0.9,9.6-2.6c3.7-1.7,7.6-4,11.7-6.7
		s8.3-5.9,12.6-9.4c4.3-3.5,8.5-7.1,12.5-10.6c4-3.6,7.8-7,11.3-10.3c1-0.9,1.8-1.7,2.7-2.5C477.9,212.3,472.1,212.4,466.2,212.5z"
		/>
	<path fill="#F9A21B" d="M568.8,210.1c0,0-0.1,0.1-0.1,0.1c-3,2.6-6.1,5.2-9.4,7.8c-3.3,2.6-6.4,5-9.4,7.2c-3,2.2-5.6,4-8,5.4
		c-2.3,1.4-4,2-5.2,2c-0.6,0-0.9-0.3-0.9-0.9c0-1.8,0.7-4.7,2-8.8c1.2-3.7,2.6-7.7,4.2-12.2c-10.2,0.2-21.1,0.5-32.6,0.8
		c-0.7,2.1-1.4,4.3-2.1,6.7c-1.6,5.3-3.1,11.4-4.7,18.4c0,1.9,0.8,3.8,2.4,5.8c1.6,2,3.5,3.8,5.7,5.4c2.2,1.6,4.5,3,6.9,4.1
		c2.4,1.1,4.4,1.7,6,1.7c2.4,0,5.4-0.8,9-2.5c3.6-1.7,7.4-3.9,11.6-6.6c4.1-2.7,8.4-5.8,12.8-9.3c4.4-3.5,8.6-6.9,12.6-10.4
		c4-3.5,7.8-6.9,11.3-10.2c1.9-1.8,3.6-3.4,5.1-4.9C580.5,209.9,574.8,210,568.8,210.1z"/>
	<path fill="#F9A21B" d="M716.7,206.8c-1.3,1.2-2.5,2.3-4,3.6c-2.8,2.4-5.7,4.9-8.9,7.4c-3.1,2.5-6.2,4.8-9.3,6.9c-3,2-6,3.7-8.7,5
		c-2.8,1.3-5.2,1.9-7.2,1.9c-1.7,0-2.5-1.3-2.5-3.9c0-6,0.7-12.8,1.8-19.9c-24.9,0.5-41.6,0.9-47.7,1.1c-0.3,0-0.8,0-1.1,0
		c-2.7,2.2-5.4,4.3-7.9,6.1c-6.8,4.9-12,7.3-15.4,7.3c-1.3,0-1.9-0.9-1.9-2.7c0-2.3,1.4-5.7,4.2-10.2c0,0,0-0.1,0.1-0.1
		c-9,0.2-20.4,0.5-33.8,0.8c-2,4.1-3.8,8.2-5,12.2c-1.6,5.3-2.4,10.1-2.4,14.4c0,1.9,0.6,3.9,1.7,5.9c1.2,2,2.5,3.9,4.1,5.5
		c1.6,1.6,3.2,3,4.9,4c1.7,1,3,1.6,4.1,1.6c1.2,0,2.5-0.3,4.1-0.9c5.2-2,10.2-4.4,14.9-7.2c4.7-2.8,9.2-5.8,13.7-9.1
		c4.5-3.3,8.9-6.9,13.3-10.6c4.4-3.8,9-7.8,13.7-12c-0.6,5.3-0.9,10.3-0.9,15.1c0,2.2,0.9,4.7,2.6,7.5c1.7,2.8,3.9,5.4,6.4,8
		c2.5,2.5,5.1,4.6,7.9,6.4c2.7,1.7,5,2.6,6.9,2.6c3.6,0,7.3-0.8,11.3-2.4c4-1.6,8.1-3.6,12.3-6.2c4.2-2.6,8.4-5.5,12.7-8.8
		c4.3-3.3,8.3-6.7,12.3-10.2c3.9-3.5,7.6-7,11.1-10.3c3.4-3.3,6.4-6.3,9.1-9C727.3,206.5,721.9,206.6,716.7,206.8z"/>
	<path fill="#F9A21B" d="M820.6,204.4c-3,2.8-6.1,5.6-9.2,8.4c-5.3,4.7-10.7,8.9-16.4,12.6c-5.7,3.7-11.6,6.7-17.7,9
		c-6.1,2.3-12.7,3.5-19.6,3.5c-3.9,0-6.5-0.6-8-1.7c-1.4-1.2-2.1-3.4-2.1-6.6c0-2.4,0.2-4.9,0.5-7.4c9.2-4.1,17.7-8.2,25.4-12.2
		c3-1.6,5.6-3.1,8.2-4.6c-10.1,0.2-19.8,0.4-29,0.6c-0.4,0.2-0.7,0.5-1.1,0.8c0.1-0.2,0.2-0.5,0.3-0.7c-13.8,0.3-26.8,0.6-38.6,0.9
		c-1.8,6.5-2.9,13.4-2.9,21c0,2.3,1,5.1,3,8.3c2,3.3,4.5,6.4,7.5,9.4c3,3,6.2,5.5,9.7,7.6c3.5,2.1,6.6,3.1,9.4,3.1
		c6.7,0,13.6-0.8,20.7-2.5c7.1-1.7,14.5-4.5,22.3-8.3c7.8-3.9,15.9-9,24.5-15.4c8.6-6.4,20.2-16.4,29.8-25.9h-4.6
		C828.5,204.2,824.5,204.3,820.6,204.4z"/>
	<path fill="#F9A21B" d="M924.9,202c-3.2,2.9-6.5,5.9-9.9,8.8c-4.1,3.5-8.8,7.2-14,11.1c-5.3,3.9-10.6,7.5-15.9,10.6
		c2.7-3.5,4.6-7.4,5.7-11.7c1.1-4.4,1.7-8.2,1.7-11.6c0-2.3-0.1-4.4-0.2-6.5c-11,0.3-21.8,0.5-32.3,0.8c0.1,1.6,0.2,3.1,0.2,4.8
		c0,3-0.3,5.9-0.8,8.7c-0.5,2.7-1.4,5.1-2.5,7.2c-1.2,2.1-2.6,3.8-4.3,5c-1.7,1.3-3.8,1.9-6.2,1.9c-4.4,0-7.6-0.5-9.4-1.4
		c-1.9-0.9-3.1-1.4-3.8-1.4c-0.3,0-0.8,0.3-1.3,0.9c-0.6,0.6-1.2,1.2-1.7,2c-0.6,0.7-1.1,1.4-1.5,2.1c-0.4,0.7-0.6,1.1-0.6,1.3
		c0.4,1.6,1.8,3.5,4.3,5.8c2.4,2.3,5.2,4.5,8.5,6.6c3.3,2.1,6.7,3.9,10.4,5.4c3.7,1.5,7,2.2,10.1,2.2c3.6,0,7.4-0.7,11.5-2.2
		c4.1-1.5,8.3-3.5,12.8-6c4.4-2.5,8.9-5.4,13.4-8.7c4.5-3.3,8.9-6.7,13.3-10.2c4.4-3.6,8.6-7.2,12.6-10.9c4-3.7,7.8-7.1,11.3-10.4
		l-4-4.4C929.6,201.9,927.2,201.9,924.9,202z"/>
	<path fill="#F9A21B" d="M999.1,200.2c-1.2,0-2.4,0.1-3.7,0.1c-1,0.8-2.1,1.8-3.4,3c-2.4,2.1-5.1,4.4-8.1,7c-3,2.6-6.1,5.2-9.4,7.8
		c-3.3,2.6-6.4,5-9.4,7.2c-3,2.2-5.6,4-8,5.4c-2.3,1.4-4,2-5.2,2c-0.6,0-0.9-0.3-0.9-0.9c0-1.2,0.4-3,1.1-5.5
		c0.7-2.5,1.7-5.5,2.8-8.8c1.2-3.4,2.5-7,3.9-10.8c0.7-1.8,1.4-3.7,2.1-5.5c-11.2,0.3-22.2,0.5-33,0.8c-0.1,0.2-0.1,0.4-0.2,0.5
		c-2,6.2-4,12.3-5.7,18.3c-1.8,6-3.2,11.3-4.3,15.9c0,1.9,0.8,3.8,2.4,5.8c1.6,2,3.5,3.8,5.7,5.4c2.2,1.6,4.5,3,6.9,4.1
		c2.4,1.1,4.4,1.7,6,1.7c2.5,0,5.6-0.8,9.1-2.5c3.6-1.7,7.4-3.9,11.5-6.6s8.3-5.8,12.7-9.3c4.4-3.5,8.6-6.9,12.6-10.4
		c4-3.5,7.8-6.9,11.3-10.2c3.5-3.3,6.4-6.1,8.7-8.4c-1.2-1.3-2.4-2.6-3.7-4.1C1000.2,201.4,999.7,200.8,999.1,200.2z"/>
	<path fill="#F9A21B" d="M1099.2,216.8c-6.8,5.9-13.5,11.5-20.2,16.9c2.7-8.6,5-16.2,6.8-22.8c1.4-5.2,2.6-9.5,3.6-12.9
		c-11.6,0.3-23.1,0.6-34.6,0.9c-0.7,0.7-1.3,1.4-2,2.2c-3.5,3.6-6.9,6.9-10.4,9.8c-3.5,2.9-6.9,5.3-10.2,7.2
		c-3.3,1.8-6.3,2.8-8.9,2.8c-0.9,0-1.7-0.3-2.1-1c-0.5-0.7-0.7-1.5-0.7-2.4c0-2.7,1-5.8,3.1-9.2c1.7-2.8,3.9-5.7,6.5-8.6
		c-11.9,0.3-23.6,0.6-35.2,0.9c-1,1.6-2.1,3.1-3,4.7c-3.2,5.5-5.6,10.6-7.3,15.5c-1.7,4.9-2.5,9.1-2.5,12.5c0,2.7,0.7,5.3,2,7.7
		c1.3,2.4,2.9,4.5,4.7,6.3c1.8,1.8,3.7,3.2,5.5,4.3c1.8,1.1,3.3,1.7,4.5,1.7c4.4,0,9.3-1.2,14.6-3.7c5.3-2.5,10.6-5.7,16-9.7
		c5.4-4,10.6-8.5,15.6-13.6c5-5.1,9.4-10.3,13.2-15.5c-4,12.1-7.4,22.2-10.3,30.5c-2.9,8.2-5.5,15.4-7.8,21.3
		c-10.3,7.1-19.8,13.8-28.7,19.9c-8.8,6.1-16.5,12-23.1,17.6c-6.6,5.6-11.7,11-15.4,16.2c-3.7,5.2-5.6,10.6-5.6,16.1
		c0,2.5,0.8,5.2,2.3,8c1.5,2.8,3.4,5.4,5.5,7.7c2.2,2.4,4.4,4.3,6.9,5.9c2.4,1.6,4.5,2.4,6.3,2.4c2.6,0,5.8-0.8,9.5-2.5
		c3.7-1.7,7.8-4,12.1-7.1c4.4-3,8.9-6.7,13.6-11.1c4.7-4.4,9.3-9.2,13.9-14.6c4.5-5.4,8.8-11.3,12.8-17.6c4-6.4,7.6-13,10.6-19.9
		c2.1-5,4.1-10.1,6.1-15c1.9-5,3.8-9.9,5.4-14.7c8.9-6.7,17.9-13.9,27-21.7c9.1-7.7,18.1-16.2,27.2-25.4l-7.1-8.3
		C1112.7,204.6,1106,210.9,1099.2,216.8z M1020.4,301.3c-4.3,6-8.6,11.5-13,16.5c-4.4,5-8.6,9.1-12.5,12.3c-3.9,3.2-7,4.8-9.1,4.8
		c-0.6,0-0.9-0.4-0.9-1.3c0-3.8,1.1-7.6,3.4-11.4c2.3-3.8,5.4-7.8,9.4-11.9c4-4.1,8.9-8.3,14.6-12.7c5.7-4.4,11.9-9,18.7-13.9
		C1028.2,289.4,1024.7,295.2,1020.4,301.3z"/>
	<path fill="#F9A21B" d="M1116.6,197.2c-1,3.2-2,6.5-2.8,9.6c-1.6,5.7-2.9,10.8-3.9,15.3c-1,4.5-1.9,8.2-2.4,11.1
		c-0.6,2.9-0.9,4.7-0.9,5.4c1.9,2,4,4,6.4,6s4.7,3.8,7.1,5.4c2.4,1.6,4.7,2.9,6.9,3.9c2.3,1,4.3,1.5,6.1,1.5c1.5,0,2.5-0.4,3-1.3
		c0.5-0.8,1.1-2,1.7-3.5c5-11.9,10.2-22.1,15.4-30.8c5.2-8.7,10.2-16.1,15-22.2c0.5-0.7,1-1.2,1.5-1.8
		C1151.8,196.3,1134.2,196.8,1116.6,197.2z"/>
	<path fill="#F9A21B" d="M1248.4,198.5c-1.3,1.1-3.1,2.6-5.5,4.7c-2.4,2.1-5.1,4.4-8.1,7c-3,2.6-6.1,5.2-9.4,7.8
		c-3.3,2.6-6.4,5-9.4,7.2c-3,2.2-5.6,4-8,5.4c-2.3,1.4-4,2-5.2,2c-0.6,0-0.9-0.3-0.9-0.9c0-1.2,0.4-3,1.1-5.5
		c0.7-2.5,1.7-5.5,2.8-8.8c1.2-3.4,2.5-7,3.9-10.8c1.5-3.8,2.9-7.7,4.4-11.5c0.1-0.2,0.1-0.4,0.2-0.6c-11.1,0.3-22.1,0.6-33.2,0.9
		c-1.1,3.2-2.3,6.4-3.4,9.7c-1.9,5.7-3.6,11.3-5.3,16.8c-1.6,5.5-2.9,10.3-3.9,14.6c0,1.9,0.8,3.8,2.4,5.8c1.6,2,3.5,3.8,5.7,5.4
		c2.3,1.6,4.6,3,7,4.1c2.4,1.1,4.4,1.7,6,1.7c2.4,0,5.4-0.8,9-2.5c3.6-1.7,7.4-3.9,11.5-6.6c4.1-2.7,8.3-5.8,12.7-9.3
		c4.4-3.5,8.6-6.9,12.6-10.4c4-3.5,7.8-6.9,11.3-10.2c3.5-3.3,6.4-6.1,8.7-8.4c-1.2-1.3-2.4-2.6-3.6-4.1
		C1250.6,200.7,1249.4,199.5,1248.4,198.5z"/>
	<path fill="#F9A21B" d="M1336.1,210.8c-4.1,3.5-8.8,7.2-14,11.1c-5.3,3.9-10.6,7.5-15.9,10.6c2.7-3.5,4.6-7.4,5.7-11.7
		c1.1-4.4,1.7-8.2,1.7-11.6c0-5.6-0.3-10.5-1-14.7c-0.2-1-0.3-1.8-0.4-2.7c-10.6,0.3-21.2,0.6-31.8,0.9c0.1,0.9,0.2,1.8,0.3,2.7
		c0.4,4.1,0.6,8.4,0.6,12.8c0,3-0.3,5.9-0.8,8.7c-0.5,2.7-1.4,5.1-2.5,7.2c-1.2,2.1-2.6,3.8-4.3,5c-1.7,1.3-3.8,1.9-6.2,1.9
		c-4.4,0-7.6-0.5-9.4-1.4c-1.9-0.9-3.1-1.4-3.8-1.4c-0.3,0-0.8,0.3-1.3,0.9c-0.6,0.6-1.2,1.2-1.7,2c-0.6,0.7-1.1,1.4-1.5,2.1
		c-0.4,0.7-0.6,1.1-0.6,1.3c0.4,1.6,1.8,3.5,4.3,5.8c2.4,2.3,5.2,4.5,8.5,6.6c3.3,2.1,6.7,3.9,10.4,5.4c3.7,1.5,7,2.2,10.1,2.2
		c3.6,0,7.4-0.7,11.5-2.2c4.1-1.5,8.3-3.5,12.8-6c4.4-2.5,8.9-5.4,13.4-8.7c4.5-3.3,8.9-6.7,13.3-10.2c4.4-3.6,8.6-7.2,12.6-10.9
		c4-3.7,7.8-7.1,11.3-10.4l-7.1-7.7C1345.6,202.6,1340.9,206.7,1336.1,210.8z"/>
	<path fill="#F9A21B" d="M1259,203.5c2.4-2.1,4.7-4.4,7.1-6.6c1.3-1.3,2.6-2.6,3.9-3.9c-5.5,0.2-11,0.3-16.6,0.5
		c-0.1,0-0.1,0.1-0.1,0.2c-3.1,2.9-5.9,5.6-8.3,7.9l7.6,7.7C1254.5,207.6,1256.7,205.6,1259,203.5z"/>
	<g>
		<path fill="#F9A21B" d="M39.5,221.7c-3.4,12.3-6.7,24.1-10,34.9c-3.8,12.6-7.4,23.7-10.8,33.7c11.1,0,22.2,0.1,32.4,0.1
			c5.5-15.5,10.8-30.8,15.8-45.7c2.6-7.8,5-15.8,7.6-23.7C62.8,221.2,51.1,221.4,39.5,221.7z"/>
		<path fill="#F9A21B" d="M155.4,243.1c-6.1-7.2-12.7-15-19.4-23.4c-10.7,0.2-21.5,0.4-32.2,0.7c7.5,14.4,14.6,27.6,21.3,39.3
			c4.6,8.2,9,15.6,13.1,22.6c17.4-0.1,36.7-0.1,54.3-0.1C180.8,271.3,168.4,258.4,155.4,243.1z"/>
	</g>
</g>
</svg>
