<?xml version="1.0" encoding="utf-8"?>
<!-- Generator: Adobe Illustrator 18.0.0, SVG Export Plug-In . SVG Version: 6.00 Build 0)  -->
<!DOCTYPE svg PUBLIC "-//W3C//DTD SVG 1.1//EN" "http://www.w3.org/Graphics/SVG/1.1/DTD/svg11.dtd">
<svg version="1.1" id="Layer_1" xmlns="http://www.w3.org/2000/svg" xmlns:xlink="http://www.w3.org/1999/xlink" x="0px" y="0px"
	 viewBox="187 205 276 276" enable-background="new 187 205 276 276" xml:space="preserve">
<path fill="#BE5FA1" d="M269.3,232.4c1.2-5.1,1.6-10.4,3.2-15.3c1.4,5,2.4,10.1,3.8,15.2c5.4,1,10.8,2,16.2,3
	c-5.3,1.3-10.6,2.6-15.9,3.7c-1.3,5.3-1.9,10.7-3.2,15.9c-1.4-5.2-2.5-10.4-3.8-15.6c-5.3-1.1-10.7-1.9-16-3.1
	C258.8,235,264.1,233.8,269.3,232.4z"/>
<path fill="#40BAE0" d="M221.7,264.7c1.5-7.6,2.8-15.3,4.3-23c1.9,7.6,3.6,15.2,5.5,22.7c7.7,1.5,15.3,2.8,23,4.4
	c-7.6,1.8-15.2,3.6-22.8,5.5c-1.4,7.5-2.7,15-4.3,22.4c-2.2-7.3-3.6-14.8-5.5-22.2c-7.7-1.5-15.4-2.9-23.1-4.4
	C206.5,268.4,214.1,266.6,221.7,264.7z"/>
<path fill="#BE5FA1" d="M281.9,246.5c0.9-1.2,1.8-2.4,2.7-3.5c-0.3,1.5-0.7,3-1,4.5c1.2,1,2.5,2,3.7,2.9c-1.5-0.4-3-0.8-4.6-1.1
	c-1,1.2-1.9,2.4-2.9,3.6c0.3-1.1,0.8-3.4,1.1-4.5c-1.2-1-2.5-1.9-3.7-2.9C278.7,245.8,280.3,246.1,281.9,246.5z"/>
<path fill="#40BAE0" d="M210.3,254.2c0.6-0.6,1.9-1.7,2.6-2.3c-0.3,0.8-1,2.4-1.3,3.3c0.6,0.6,1.8,1.9,2.3,2.6
	c-1.1-0.4-2.2-0.9-3.3-1.3c-0.6,0.6-1.8,1.7-2.5,2.2c0.4-1.1,0.8-2.1,1.2-3.2c-0.7-0.9-1.4-1.7-2.2-2.6
	C208,253.3,209.6,253.9,210.3,254.2z"/>
<path fill="#40BAE0" d="M241.3,253.2c0,0.8,0,2.4,0,3.2c1,0.5,1.9,1.1,2.9,1.6c-2.7-1-4,0.6-4.7,2.9c0-0.8-0.1-2.5-0.1-3.4
	c-1-0.5-2-1-3-1.5C238.8,256.4,240.8,255.9,241.3,253.2z"/>
<path fill="#F8C520" d="M306.1,274.9c0.9-4.5,1.7-9,2.5-13.5c1.1,4.5,2.1,8.9,3.2,13.4c4.5,0.8,8.9,1.6,13.4,2.5
	c-4.4,1.1-8.9,2.1-13.3,3.3c-0.8,4.4-1.6,8.9-2.5,13.3c-1.1-4.4-2.1-8.8-3.2-13.2c-4.5-0.8-9-1.7-13.4-2.5
	C297.2,277,301.7,276,306.1,274.9z"/>
<path fill="#F8C520" d="M282.8,261.5c0.3,1.9,1.6,3,3.5,2.9c-0.9,0.3-1.7,0.5-2.5,0.8c-0.1,0.8-0.3,1.7-0.4,2.5
	c-0.3-2.1-1.6-2.9-3.6-2.8C281.9,264.7,282.9,263.6,282.8,261.5z"/>
<path fill="#F8C520" d="M299.5,267.4c0.6-1,1.2-2,1.8-3c0,0.8-0.1,2.5-0.1,3.4c0.9,0.3,2.6,1,3.4,1.3c-1.3,0-2.5,0-3.8,0
	c-0.4,1-1.1,3.1-1.5,4.1c-0.1-1.1-0.2-3.1-0.2-4.2c-1.1-0.5-2.3-1-3.4-1.6C296.7,267.5,298.6,267.5,299.5,267.4z"/>
<path fill="#000" d="M264.5,277.6c6.2-2.4,13.2-2.7,19.6-0.6c1.7,0.6,3.9,1.5,3.8,3.6c2.6,18.8,4.9,37.5,7.4,56.3
	c-6.5,6.2-16.7,8.7-25.3,5.4c-5.9-18.3-12-36.5-17.8-54.8C254.4,282.4,259.4,279.4,264.5,277.6z"/>
<path fill="#40BAE0" d="M236.7,279.9c0.9-1.2,1.8-2.4,2.7-3.5c-0.3,1.4-0.7,2.9-1,4.3c1.1,0.9,2.3,1.8,3.5,2.7
	c-1.4-0.3-2.8-0.6-4.3-0.9c-0.9,1.1-1.8,2.3-2.7,3.4c0.2-1.1,0.7-3.2,0.9-4.3c-1.1-0.9-2.3-1.8-3.4-2.6
	C233.6,279.2,235.7,279.7,236.7,279.9z"/>
<path fill="#FFFFFF" d="M255.7,289c7.7,3.1,15.9,0.5,23.2-2.4c-5.8,5.6-14.3,6.9-21.9,5.3C256.7,291.1,256.1,289.7,255.7,289z"/>
<path fill="#79CDE7" d="M242.6,299.2c0.9,0.6,1.9,1.2,2.8,1.8c-0.7,0.8-1.3,1.5-1.9,2.3c-1.1-0.4-2.2-0.8-3.2-1.1
	C241.4,301.4,242.2,300.5,242.6,299.2z"/>
<path fill="#000" d="M352.6,308.6c3.5-0.7,7-0.7,10.5-0.2c14.8,39.5,29.6,78.9,44.4,118.4c5.3-26.3,9.8-52.7,14.7-79.1
	c1-6.4,2.3-13.1,0.6-19.5c-1.8-5.5-7.9-7.3-12.9-8.9c-1.2-3.1-1.2-6.4-1.4-9.7c14.9,0.5,29.7,0.1,44.6,0c-0.3,3.3-0.9,6.6-1.7,9.8
	c-4.7,0.9-8.4,4.2-10.7,8.2c-4.8,7.5-6.2,16.5-8.2,25c-8.4,38.4-16.5,76.9-24.6,115.4c-2.7,0.2-5.5,0.2-8.2,0
	c-15.9-41.5-31.6-83-47.4-124.4c-14,41.7-28.1,83.3-42.1,125c-2.9,0.4-5.9,0.4-8.8,0.3c-9.7-41.3-18.8-82.8-30.6-123.6
	c8.5,3.6,18.5,0,25.4-5.4c3.6,30.4,10.8,60.2,16,90.3C325.3,389.5,339.1,349.1,352.6,308.6z"/>
<path fill="#FFFFFF" d="M278.1,351c0.5,0.1,1.6,0.3,2.1,0.3c2.8,12.4,5.8,24.9,8.1,37.4C285.1,376.1,281.9,363.4,278.1,351z"/>
</svg>
