<svg width="267" height="266" xmlns="http://www.w3.org/2000/svg" viewBox="0 0 267 266">

 <g>
  <title>Layer 1</title>
  <path id="svg_1" d="m73.633333,17.733332c1.2,-5.1 1.6,-10.4 3.2,-15.3c1.4,5 2.4,10.1 3.8,15.2c5.4,1 10.8,2 16.2,3c-5.3,1.3 -10.6,2.6 -15.9,3.7c-1.3,5.3 -1.9,10.7 -3.2,15.9c-1.4,-5.2 -2.5,-10.4 -3.8,-15.6c-5.3,-1.1 -10.7,-1.9 -16,-3.1c5.2,-1.2 10.5,-2.4 15.7,-3.8z" fill="#BE5FA1"/>
  <path id="svg_2" d="m26.033333,50.033332c1.5,-7.6 2.8,-15.3 4.3,-23c1.9,7.6 3.6,15.2 5.5,22.7c7.7,1.5 15.3,2.8 23,4.4c-7.6,1.8 -15.2,3.6 -22.8,5.5c-1.4,7.5 -2.7,15 -4.3,22.4c-2.2,-7.3 -3.6,-14.8 -5.5,-22.2c-7.7,-1.5 -15.4,-2.9 -23.1,-4.4c7.7,-1.7 15.3,-3.5 22.9,-5.4z" fill="#40BAE0"/>
  <path id="svg_3" d="m86.233333,31.833332c0.9,-1.2 1.8,-2.4 2.7,-3.5c-0.3,1.5 -0.7,3 -1,4.5c1.2,1 2.5,2 3.7,2.9c-1.5,-0.4 -3,-0.8 -4.6,-1.1c-1,1.2 -1.9,2.4 -2.9,3.6c0.3,-1.1 0.8,-3.4 1.1,-4.5c-1.2,-1 -2.5,-1.9 -3.7,-2.9c1.5,0.3 3.1,0.6 4.7,1z" fill="#BE5FA1"/>
  <path id="svg_4" d="m14.633333,39.533332c0.6,-0.6 1.9,-1.7 2.6,-2.3c-0.3,0.8 -1,2.4 -1.3,3.3c0.6,0.6 1.8,1.9 2.3,2.6c-1.1,-0.4 -2.2,-0.9 -3.3,-1.3c-0.6,0.6 -1.8,1.7 -2.5,2.2c0.4,-1.1 0.8,-2.1 1.2,-3.2c-0.7,-0.9 -1.4,-1.7 -2.2,-2.6c0.9,0.4 2.5,1 3.2,1.3z" fill="#40BAE0"/>
  <path id="svg_5" d="m45.633333,38.533332c0,0.8 0,2.4 0,3.2c1,0.5 1.9,1.1 2.9,1.6c-2.7,-1 -4,0.6 -4.7,2.9c0,-0.8 -0.1,-2.5 -0.1,-3.4c-1,-0.5 -2,-1 -3,-1.5c2.4,0.4 4.4,-0.1 4.9,-2.8z" fill="#40BAE0"/>
  <path id="svg_6" d="m110.433333,60.233332c0.9,-4.5 1.7,-9 2.5,-13.5c1.1,4.5 2.1,8.9 3.2,13.4c4.5,0.8 8.9,1.6 13.4,2.5c-4.4,1.1 -8.9,2.1 -13.3,3.3c-0.8,4.4 -1.6,8.9 -2.5,13.3c-1.1,-4.4 -2.1,-8.8 -3.2,-13.2c-4.5,-0.8 -9,-1.7 -13.4,-2.5c4.4,-1.2 8.9,-2.2 13.3,-3.3z" fill="#F8C520"/>
  <path id="svg_7" d="m87.133333,46.833332c0.3,1.9 1.6,3 3.5,2.9c-0.9,0.3 -1.7,0.5 -2.5,0.8c-0.1,0.8 -0.3,1.7 -0.4,2.5c-0.3,-2.1 -1.6,-2.9 -3.6,-2.8c2.1,-0.2 3.1,-1.3 3,-3.4z" fill="#F8C520"/>
  <path id="svg_8" d="m103.833333,52.733332c0.6,-1 1.2,-2 1.8,-3c0,0.8 -0.1,2.5 -0.1,3.4c0.9,0.3 2.6,1 3.4,1.3c-1.3,0 -2.5,0 -3.8,0c-0.4,1 -1.1,3.1 -1.5,4.1c-0.1,-1.1 -0.2,-3.1 -0.2,-4.2c-1.1,-0.5 -2.3,-1 -3.4,-1.6c1,0.1 2.9,0.1 3.8,0z" fill="#F8C520"/>
  <path id="svg_9" d="m68.833333,62.933332c6.2,-2.4 13.2,-2.7 19.6,-0.6c1.7,0.6 3.9,1.5 3.8,3.6c2.6,18.8 4.9,37.5 7.4,56.3c-6.5,6.2 -16.7,8.7 -25.3,5.4c-5.9,-18.3 -12,-36.5 -17.8,-54.8c2.2,-5.1 7.2,-8.1 12.3,-9.9z" fill="#000"/>
  <path id="svg_10" d="m41.033333,65.233332c0.9,-1.2 1.8,-2.4 2.7,-3.5c-0.3,1.4 -0.7,2.9 -1,4.3c1.1,0.9 2.3,1.8 3.5,2.7c-1.4,-0.3 -2.8,-0.6 -4.3,-0.9c-0.9,1.1 -1.8,2.3 -2.7,3.4c0.2,-1.1 0.7,-3.2 0.9,-4.3c-1.1,-0.9 -2.3,-1.8 -3.4,-2.6c1.2,0.2 3.3,0.7 4.3,0.9z" fill="#40BAE0"/>
  <path id="svg_11" d="m60.033333,74.333332c7.7,3.1 15.9,0.5 23.2,-2.4c-5.8,5.6 -14.3,6.9 -21.9,5.3c-0.3,-0.8 -0.9,-2.2 -1.3,-2.9z" fill="#FFFFFF"/>
  <path id="svg_12" d="m46.933333,84.533332c0.9,0.6 1.9,1.2 2.8,1.8c-0.7,0.8 -1.3,1.5 -1.9,2.3c-1.1,-0.4 -2.2,-0.8 -3.2,-1.1c1.1,-0.8 1.9,-1.7 2.3,-3z" fill="#79CDE7"/>
  <path id="svg_13" d="m156.933333,93.933332c3.5,-0.7 7,-0.7 10.5,-0.2c14.8,39.5 29.6,78.9 44.4,118.4c5.3,-26.3 9.8,-52.7 14.7,-79.1c1,-6.4 2.3,-13.1 0.6,-19.5c-1.8,-5.5 -7.9,-7.3 -12.9,-8.9c-1.2,-3.1 -1.2,-6.4 -1.4,-9.7c14.9,0.5 29.7,0.1 44.6,0c-0.3,3.3 -0.9,6.6 -1.7,9.8c-4.7,0.9 -8.4,4.2 -10.7,8.2c-4.8,7.5 -6.2,16.5 -8.2,25c-8.4,38.4 -16.5,76.9 -24.6,115.4c-2.7,0.2 -5.5,0.2 -8.2,0c-15.9,-41.5 -31.6,-83 -47.4,-124.4c-14,41.7 -28.1,83.3 -42.1,125c-2.9,0.4 -5.9,0.4 -8.8,0.3c-9.7,-41.3 -18.8,-82.8 -30.6,-123.6c8.5,3.6 18.5,0 25.4,-5.4c3.6,30.4 10.8,60.2 16,90.3c13.1,-40.7 26.9,-81.1 40.4,-121.6z" fill="#000"/>
  <path id="svg_14" d="m82.433333,136.333332c0.5,0.1 1.6,0.3 2.1,0.3c2.8,12.4 5.8,24.9 8.1,37.4c-3.2,-12.6 -6.4,-25.3 -10.2,-37.7z" fill="#FFFFFF"/>
 </g>
</svg>
